<?xml version="1.0" encoding="iso-8859-1"?>
<!-- Generator: Adobe Illustrator 19.0.0, SVG Export Plug-In . SVG Version: 6.00 Build 0)  -->
<svg version="1.1" id="Layer_1" xmlns="http://www.w3.org/2000/svg" xmlns:xlink="http://www.w3.org/1999/xlink" x="0px" y="0px"
	 viewBox="0 0 512 512" style="enable-background:new 0 0 512 512;" xml:space="preserve">
<circle style="fill:#FD9A0C;" cx="256" cy="256" r="256"/>
<circle style="fill:#FCDE65;" cx="256" cy="256" r="227.868"/>
<path style="fill:#FD9A0C;" d="M267.014,376.274c28.376,7.589,55.649,18.625,81.203,32.745
	c-26.92,16.259-58.47,25.611-92.217,25.611c-55.945,0-105.882-25.714-138.627-65.968c14.916-2.401,29.81-3.846,44.601-4.369
	L267.014,376.274z"/>
<path style="fill:#FFAD38;" d="M370.893,253.503l-10.253-14.899l-11.378-9.341l11.378-7.725v-3.859
	c0-16.684-3.758-32.492-10.474-46.62l-91.153-55.229L161.98,364.46l90.547,48.939c11.572-29.662,29.09-74.546,29.09-74.546
	l48.204,0.171c17.022,0,30.821-13.798,30.821-30.821v-41.974c1.026,0.418,2.122,0.644,3.23,0.644c1.667,0,3.352-0.487,4.83-1.504
	C372.584,262.698,373.564,257.385,370.893,253.503z"/>
<g>
	<path style="fill:#FCDE65;" d="M360.641,299.717H345.32c-4.713,0-8.533-3.821-8.533-8.533s3.821-8.533,8.533-8.533h15.321
		c4.713,0,8.533,3.821,8.533,8.533S365.354,299.717,360.641,299.717z"/>
	<path style="fill:#FCDE65;" d="M326.837,221.537c-2.929,0-5.654,1.502-7.217,3.979c-1.563,2.477-1.746,5.583-0.486,8.226
		l3.945,8.275c1.463,3.069,4.522,4.863,7.708,4.863c1.231,0,2.482-0.267,3.666-0.833c2.984-1.422,4.763-4.353,4.859-7.444h21.328
		v-17.067h-33.803V221.537z"/>
	<path style="fill:#FCDE65;" d="M223.653,232.161c0.474,21.589,13.624,41.829,34.954,50.303v-70.823L223.653,232.161z"/>
</g>
<g>
	<path style="fill:#FEF7D8;" d="M277.908,419.323c-0.176,0-0.355-0.005-0.533-0.016c-46.163-2.842-89.716-22.38-122.638-55.014
		c-3.347-3.318-3.371-8.721-0.053-12.067c3.319-3.348,8.721-3.371,12.067-0.053c29.982,29.72,69.641,47.512,111.672,50.101
		c4.704,0.289,8.282,4.338,7.993,9.042C286.137,415.841,282.381,419.323,277.908,419.323z"/>
	<path style="fill:#FEF7D8;" d="M371.674,134.788c0-21.555-17.474-39.028-39.028-39.028l-84.331,0.005
		c-1.844-0.003-3.707-0.005-5.61-0.005c-61.795,0-113.064,45.031-122.806,104.066c-11.62,7.536-19.314,20.611-19.314,35.492
		c0,12.233,5.202,23.247,13.507,30.968c1.422,29.036,25.412,52.142,54.801,52.142c30.304,0,54.87-24.567,54.87-54.87
		c0-2.607-0.195-5.167-0.546-7.675c2.348,0.563,4.796,0.869,7.316,0.869c17.281,0,31.289-14.008,31.289-31.289
		c0-4.962-1.159-9.651-3.215-13.819c14.211-2.954,24.889-15.544,24.889-30.631c0-2.466-0.294-4.861-0.833-7.161
		c0.279,0.011,0.552,0.042,0.833,0.042c11.195,0,20.27-9.066,20.289-20.256l46.382,17.422
		C363.663,164.914,371.674,150.583,371.674,134.788z"/>
	<circle style="fill:#FEF7D8;" cx="258.605" cy="282.465" r="17.067"/>
</g>
<g>
</g>
<g>
</g>
<g>
</g>
<g>
</g>
<g>
</g>
<g>
</g>
<g>
</g>
<g>
</g>
<g>
</g>
<g>
</g>
<g>
</g>
<g>
</g>
<g>
</g>
<g>
</g>
<g>
</g>
</svg>
