<?xml version="1.0" encoding="iso-8859-1"?>
<!-- Generator: Adobe Illustrator 19.0.0, SVG Export Plug-In . SVG Version: 6.00 Build 0)  -->
<svg version="1.1" id="Layer_1" xmlns="http://www.w3.org/2000/svg" xmlns:xlink="http://www.w3.org/1999/xlink" x="0px" y="0px"
	 viewBox="0 0 512 512" style="enable-background:new 0 0 512 512;" xml:space="preserve">
<circle style="fill:#FD9A0C;" cx="256" cy="256" r="256"/>
<circle style="fill:#FCDE65;" cx="256" cy="256" r="227.868"/>
<path style="fill:#FFAD38;" d="M224.232,134.664c-48.565,17.676-79.53,62.3-82.159,110.838c-3.652,0.461-7.306,1.318-10.906,2.629
	c-15.835,5.764-27.674,18.992-31.672,35.388c-1.104,4.529,1.672,9.094,6.2,10.198c4.527,1.105,9.093-1.672,10.198-6.2
	c2.658-10.902,10.526-19.696,21.046-23.525c17.315-6.303,36.53,2.658,42.831,19.973c6.303,17.316-2.658,36.53-19.972,42.832
	c-10.52,3.829-22.201,2.149-31.244-4.492c-3.756-2.759-9.038-1.949-11.797,1.805c-2.759,3.756-1.951,9.039,1.806,11.798
	c13.6,9.99,31.175,12.513,47.008,6.751c3.601-1.311,6.951-3.003,10.044-4.997c33.214,35.493,85.619,49.773,134.183,32.096
	L224.232,134.664z M195.739,278.508c-0.037-0.106-0.068-0.212-0.106-0.316c-0.038-0.105-0.083-0.206-0.122-0.309l0.366,0.222
	L195.739,278.508z"/>
<g>
	<path style="fill:#FD9A0C;" d="M420.438,196.371c-1.595-4.38-6.438-6.638-10.817-5.045l-114.321,41.61
		c-3.721-3.273-8.731-4.899-13.784-4.291c-0.006-0.017-139.447,16.913-139.447,16.913l33.508,92.065l117.7-76.663
		c4.259-2.793,7.05-7.261,7.796-12.163l114.321-41.61C419.773,205.593,422.032,200.75,420.438,196.371z"/>
	<path style="fill:#FD9A0C;" d="M256,424.229c-19.421,0-38.477-3.293-56.641-9.786c-4.389-1.57-6.675-6.399-5.105-10.788
		c1.57-4.389,6.397-6.675,10.789-5.105c16.334,5.84,33.478,8.801,50.957,8.801s34.624-2.961,50.957-8.801
		c4.391-1.571,9.218,0.716,10.789,5.105c1.57,4.389-0.717,9.218-5.105,10.788C294.477,420.936,275.421,424.229,256,424.229z"/>
	<path style="fill:#FD9A0C;" d="M256,458.268c-43.055,0-84.168-13.36-118.897-38.634c-3.77-2.743-4.6-8.021-1.858-11.789
		c2.743-3.77,8.023-4.6,11.791-1.858c31.824,23.16,69.504,35.402,108.965,35.402s77.141-12.242,108.965-35.402
		c3.769-2.742,9.046-1.912,11.791,1.858c2.742,3.769,1.911,9.047-1.858,11.789C340.168,444.908,299.055,458.268,256,458.268z"/>
	<path style="fill:#FD9A0C;" d="M264.44,96.052V62.171c0-3.336-1.966-6.36-5.015-7.714c-3.051-1.354-6.611-0.783-9.084,1.454
		l-8.111,7.335c-3.457,3.126-3.726,8.463-0.6,11.92c1.587,1.754,3.742,2.687,5.931,2.773v18.114
		c-4.508,0.174-8.111,3.873-8.111,8.423c0,4.661,3.778,8.44,8.44,8.44h16.222c4.662,0,8.44-3.779,8.44-8.44
		C272.551,99.926,268.947,96.226,264.44,96.052z"/>
</g>
<g>
</g>
<g>
</g>
<g>
</g>
<g>
</g>
<g>
</g>
<g>
</g>
<g>
</g>
<g>
</g>
<g>
</g>
<g>
</g>
<g>
</g>
<g>
</g>
<g>
</g>
<g>
</g>
<g>
</g>
</svg>
